<?xml version="1.0" encoding="UTF-8" ?>
<svg version="1.1" width="16" height="16" xmlns="http://www.w3.org/2000/svg" shape-rendering="crispEdges">
<rect x="1" y="1" width="3" height="9" fill="#000000" />
<rect x="12" y="1" width="3" height="9" fill="#000000" />
<rect x="0" y="2" width="1" height="7" fill="#000000" />
<rect x="4" y="2" width="1" height="11" fill="#000000" />
<rect x="11" y="2" width="1" height="11" fill="#000000" />
<rect x="15" y="2" width="1" height="7" fill="#000000" />
<rect x="5" y="3" width="1" height="11" fill="#000000" />
<rect x="10" y="3" width="1" height="11" fill="#000000" />
<rect x="6" y="4" width="1" height="11" fill="#000000" />
<rect x="9" y="4" width="1" height="11" fill="#000000" />
<rect x="7" y="5" width="2" height="11" fill="#000000" />
<rect x="2" y="10" width="2" height="1" fill="#000000" />
<rect x="12" y="10" width="2" height="1" fill="#000000" />
<rect x="3" y="11" width="1" height="1" fill="#000000" />
<rect x="12" y="11" width="1" height="1" fill="#000000" />
</svg>